<?xml version="1.0" encoding="UTF-8"?><svg id="Livello_2" xmlns="http://www.w3.org/2000/svg" viewBox="0 0 36.12 36.12"><defs><style>.cls-1{fill:#f5f8ea;}.cls-2{stroke-width:.06px;}.cls-2,.cls-3,.cls-4{fill:#050602;stroke:#050602;stroke-miterlimit:10;}.cls-3{stroke-width:.06px;}.cls-4{stroke-width:.06px;}</style></defs><g id="Livello_1-2"><circle class="cls-1" cx="18.06" cy="18.06" r="18.06"/><path class="cls-3" d="M7.4,17.38V7.12h1.25v9.56l1.25.69V7.12h1.25v9.56l1.25.71V7.12h1.25v9.58l-2.51,1.43-1.24-.72-1.24.72-1.28-.73Z"/><path class="cls-3" d="M17.57,9.69l1.25.72v6.32l-2.51,1.45-1.25-.73v-6.32l2.51-1.44ZM16.32,16.72l1.25.71v-6.28l-1.25-.69v6.27Z"/><path class="cls-3" d="M23.68,10.3v3.21h-1.25v-2.46l-1.05-.63v7.71h-1.25v-8.28h1.25v.58l1.25-.72,1.05.6Z"/><path class="cls-3" d="M28.72,9.84v2l-1.22.72,1.22.71v4.85h-1.25v-4.13l-1.25-.72v4.85h-1.25V6.78h1.25v6.47l1.25-.72v-2.69h1.25Z"/><path class="cls-4" d="M11.07,19.15v2.35l-1.22.15v-1.87l-1.22-.61v2.79l2.45,1.39v4.57l-2.45,1.41-1.22-.7v-3.83l1.22-.23v3.34l1.22.7v-4.53l-2.45-1.42v-2.81l2.45-1.41,1.22.7Z"/><path class="cls-4" d="M16.09,21.74v7.53h-1.22v-6.8l-1.22-.73v7.53h-1.22v-11.08h1.22v3.55l1.22-.7,1.22.7Z"/><path class="cls-4" d="M19.85,21.03l1.22.7v6.18l-2.45,1.42-1.22-.72v-6.18l2.45-1.41ZM18.63,27.9l1.22.69v-6.14l-1.22-.68v6.12Z"/><path class="cls-4" d="M26.13,21.17v1.96l-1.2.7,1.2.69v4.74h-1.22v-4.04l-1.22-.7v4.74h-1.22v-11.08h1.22v6.32l1.22-.7v-2.63h1.22Z"/><path class="cls-2" d="M28.72,27.47h-1.25v-8.32h1.25v8.32ZM27.47,29.27v-1.31h1.25v1.31h-1.25Z"/></g></svg>