<?xml version="1.0" encoding="UTF-8"?><svg id="Livello_2" xmlns="http://www.w3.org/2000/svg" viewBox="0 0 1105.32 419.42"><defs><style>.cls-1{fill:#050602;}.cls-1,.cls-2{stroke:#050602;stroke-miterlimit:10;stroke-width:1.42px;}.cls-2{fill:none;}</style></defs><g id="Livello_1-2"><path class="cls-2" d="M.71,264.2V8.94h31.15v237.71l31.15,17.18V8.94h31.15v237.71l31.15,17.54V8.94h31.15v238.07l-62.29,35.44-30.79-17.9-30.79,17.9L.71,264.2Z"/><path class="cls-2" d="M253.66,73.03l31.15,17.9v157.16l-62.29,36.16-31.15-18.26V108.83l62.29-35.8ZM222.51,247.73l31.15,17.54V109.18l-31.15-17.18v155.73Z"/><path class="cls-2" d="M408.16,88.06v79.84h-31.15v-61.22l-26.13-15.75v191.53h-31.15V76.61h31.15v14.32l31.15-17.9,26.13,15.04Z"/><path class="cls-2" d="M530.8,76.61v49.76l-30.43,17.9,30.43,17.54v120.65h-31.15v-102.75l-31.15-17.9v120.65h-31.15V.71h31.15v160.74l31.15-17.9v-66.95h31.15Z"/><path class="cls-2" d="M655.59,25.05v59.79l-31.15,3.94v-47.61l-31.15-15.39v70.88l62.29,35.44v116.35l-62.29,35.8-31.15-17.9v-97.38l31.15-5.73v84.85l31.15,17.9v-115.28l-62.29-36.16V42.95l62.29-35.8,31.15,17.9Z"/><path class="cls-2" d="M783.24,90.93v191.53h-31.15V109.54l-31.15-18.62v191.53h-31.15V.71h31.15v90.22l31.15-17.9,31.15,17.9Z"/><path class="cls-2" d="M879.03,73.03l31.15,17.9v157.16l-62.29,36.16-31.15-18.26V108.83l62.29-35.8ZM847.88,247.73l31.15,17.54V109.18l-31.15-17.18v155.73Z"/><path class="cls-2" d="M1038.54,76.61v49.76l-30.43,17.9,30.43,17.54v120.65h-31.15v-102.75l-31.15-17.9v120.65h-31.15V.71h31.15v160.74l31.15-17.9v-66.95h31.15Z"/><path class="cls-2" d="M1104.61,236.63h-31.15V25.05h31.15v211.58ZM1073.47,282.46v-33.29h31.15v33.29h-31.15Z"/><path class="cls-1" d="M.71,398.56v-255.26h31.15v237.71l31.15,17.18v-254.9h31.15v237.71l31.15,17.54v-255.26h31.15v238.07l-62.29,35.44-30.79-17.9-30.79,17.9L.71,398.56Z"/><path class="cls-1" d="M253.66,207.38l31.15,17.9v157.16l-62.29,36.16-31.15-18.26v-157.16l62.29-35.8ZM222.51,382.09l31.15,17.54v-156.09l-31.15-17.18v155.73Z"/><path class="cls-1" d="M408.16,222.42v79.84h-31.15v-61.22l-26.13-15.75v191.53h-31.15v-205.85h31.15v14.32l31.15-17.9,26.13,15.04Z"/><path class="cls-1" d="M530.8,210.96v49.76l-30.43,17.9,30.43,17.54v120.65h-31.15v-102.75l-31.15-17.9v120.65h-31.15V135.06h31.15v160.74l31.15-17.9v-66.95h31.15Z"/><path class="cls-1" d="M655.59,159.41v59.79l-31.15,3.94v-47.61l-31.15-15.39v70.88l62.29,35.44v116.35l-62.29,35.8-31.15-17.9v-97.38l31.15-5.73v84.85l31.15,17.9v-115.28l-62.29-36.16v-71.6l62.29-35.8,31.15,17.9Z"/><path class="cls-1" d="M783.24,225.28v191.53h-31.15v-172.92l-31.15-18.62v191.53h-31.15V135.06h31.15v90.22l31.15-17.9,31.15,17.9Z"/><path class="cls-1" d="M879.03,207.38l31.15,17.9v157.16l-62.29,36.16-31.15-18.26v-157.16l62.29-35.8ZM847.88,382.09l31.15,17.54v-156.09l-31.15-17.18v155.73Z"/><path class="cls-1" d="M1038.54,210.96v49.76l-30.43,17.9,30.43,17.54v120.65h-31.15v-102.75l-31.15-17.9v120.65h-31.15V135.06h31.15v160.74l31.15-17.9v-66.95h31.15Z"/><path class="cls-1" d="M1104.61,370.99h-31.15v-211.58h31.15v211.58ZM1073.47,416.81v-33.29h31.15v33.29h-31.15Z"/></g></svg>